# xmcd CD database file
#
# Track frame offsets:
#	150
#	19278
#	32036
#	44824
#	63786
#	80337
#	95538
#	111016
#	126597
#	143034
#
# Disc length: 2101 seconds
#
# Revision: 0
# Processed by: cddbd v1.5.1PL2 Copyright (c) Steve Scherf et al.
# Submitted via: CDex 1.51
#
DISCID=8908330a
DTITLE=Ty England - Alive And Well And Livin' The Dream
DYEAR=2006
DGENRE=Country
TTITLE0=Love Is Stronger
TTITLE1=The Perfect Girl
TTITLE2=Texans Holdem
TTITLE3=Club Paradise
TTITLE4=Nothing But Love
TTITLE5=Redneck Anthem
TTITLE6=Stick To Your Guns
TTITLE7=The NRA Song
TTITLE8=It Must Be Colorado
TTITLE9=Livin' The Dream
EXTD=YEAR: 2006
EXTT0=
EXTT1=
EXTT2=
EXTT3=
EXTT4=
EXTT5=
EXTT6=
EXTT7=
EXTT8=
EXTT9=
PLAYORDER=
